HIERARCHY
ROOT Hips
{
	OFFSET 0.00000 0.00000 0.00000
	CHANNELS 6 Xposition Yposition Zposition Zrotation Yrotation Xrotation 
	JOINT LHipJoint
	{
		OFFSET 0 0 0
		CHANNELS 3 Zrotation Yrotation Xrotation
		JOINT LeftHip
		{
			OFFSET 1.62964 -1.40469 0.78906
			CHANNELS 3 Zrotation Yrotation Xrotation
			JOINT LeftKnee
			{
				OFFSET 2.29640 -6.30932 0.00000
				CHANNELS 3 Zrotation Yrotation Xrotation
				JOINT LeftAnkle
				{
					OFFSET 2.29451 -6.30412 0.00000
					CHANNELS 3 Zrotation Yrotation Xrotation
					JOINT LeftToe
					{
						OFFSET 0.03611 -0.09921 1.56387
						CHANNELS 3 Zrotation Yrotation Xrotation
						End Site
						{
							OFFSET 0.00000 -0.00000 0.80291
						}
					}
				}
			}
		}
	}
	JOINT RHipJoint
	{
		OFFSET 0 0 0
		CHANNELS 3 Zrotation Yrotation Xrotation
		JOINT RightHip
		{
			OFFSET -1.73712 -1.40469 0.78906
			CHANNELS 3 Zrotation Yrotation Xrotation
			JOINT RightKnee
			{
				OFFSET -2.28137 -6.26801 0.00000
				CHANNELS 3 Zrotation Yrotation Xrotation
				JOINT RightAnkle
				{
					OFFSET -2.28681 -6.28298 0.00000
					CHANNELS 3 Zrotation Yrotation Xrotation
					JOINT RightToe
					{
						OFFSET -0.15927 -0.43759 1.61103
						CHANNELS 3 Zrotation Yrotation Xrotation
						End Site
						{
							OFFSET -0.00000 -0.00000 0.84630
						}
					}
				}
			}
		}
	}
	JOINT lowerback
	{
		OFFSET 0 0 0
		CHANNELS 3 Zrotation Yrotation Xrotation
		JOINT Chest
		{
			OFFSET -0.04227 2.04338 -0.00225
			CHANNELS 3 Zrotation Yrotation Xrotation
			JOINT Chest2
			{
				OFFSET -0.02148 2.04482 -0.04273
				CHANNELS 3 Zrotation Yrotation Xrotation
				JOINT lowerneck
				{
					OFFSET 0 0 0
					CHANNELS 3 Zrotation Yrotation Xrotation
					JOINT Neck
					{
						OFFSET 0.09180 1.44629 0.19359
						CHANNELS 3 Zrotation Yrotation Xrotation
						JOINT Head
						{
							OFFSET 0.00887 1.40645 0.14750
							CHANNELS 3 Zrotation Yrotation Xrotation
							End Site
							{
								OFFSET -0.00669 1.50671 0.03707
							}
						}
					}
				}
				JOINT LeftCollar
				{
					OFFSET 0 0 0
					CHANNELS 3 Zrotation Yrotation Xrotation
					JOINT LeftShoulder
					{
						OFFSET 2.17674 1.86763 -0.06520
CHANNELS 3 Zrotation Xrotation Yrotation
						JOINT LeftElbow
						{
OFFSET 0 -4.657760 0.000000
CHANNELS 3 Zrotation Xrotation Yrotation
							JOINT LeftWrist
							{
OFFSET 0 -3.555390 0.000000
CHANNELS 3 Zrotation Xrotation Yrotation
								JOINT lhand
								{
									OFFSET 0 0 0
CHANNELS 3 Zrotation Xrotation Yrotation
									JOINT LFingers
									{
OFFSET 0 -0.707260 0.000000
CHANNELS 3 Zrotation Xrotation Yrotation
										End Site
										{
OFFSET 0 -0.570220 0.000000
										}
									}
								}
								JOINT LThumb
								{
OFFSET 0 0.000000 0.000000
CHANNELS 3 Zrotation Xrotation Yrotation
									End Site
									{
OFFSET 0 -0.578920 0.578920
									}
								}
							}
						}
					}
				}
				JOINT RightCollar
				{
					OFFSET 0 0 0
					CHANNELS 3 Zrotation Yrotation Xrotation
					JOINT RightShoulder
					{
						OFFSET -2.80694 1.55459 -0.32496
CHANNELS 3 Zrotation Xrotation Yrotation
						JOINT RightElbow
						{
OFFSET 0 -4.719250 -0.000000
CHANNELS 3 Zrotation Xrotation Yrotation
							JOINT RightWrist
							{
OFFSET 0 -3.569900 0.000000
CHANNELS 3 Zrotation Xrotation Yrotation
								JOINT rhand
								{
									OFFSET 0 0 0
CHANNELS 3 Zrotation Xrotation Yrotation
									JOINT RFingers
									{
OFFSET 0 -0.507760 0.000000
CHANNELS 3 Zrotation Xrotation Yrotation
										End Site
										{
OFFSET 0 -0.409370 0.000000
										}
									}
								}
								JOINT RThumb
								{
OFFSET 0 0.000000 0.000000
CHANNELS 3 Zrotation Xrotation Yrotation
									End Site
									{
OFFSET 0 -0.415620 0.415620
									}
								}
							}
						}
					}
				}
			}
		}
	}
}
MOTION
Frames: 8
Frame Time: 0.008333333333333333
-1.793800 16.199100 36.157200 177.316000 -1.925400 -151.759000 0.000000 0.000000 0.000000 -18.862300 -17.199400 -19.682200 0.217900 3.004900 8.292500 0.277000 1.424600 -10.565000 5.274200 -13.686100 -41.994300 0.000000 0.000000 0.000000 18.429200 13.183700 -19.429800 -0.048700 -1.424800 3.918500 -0.990900 -0.659400 -19.063000 -2.585200 9.991200 -28.948100 -5.991000 -2.125200 -31.536800 -0.218500 -1.457600 -1.773700 2.317700 -1.369600 14.564200 -2.499800 -2.149700 2.959200 8.413300 -3.411100 3.132700 3.134900 -1.829300 0.680800 -0.000000 -0.000000 0.000000 5.649500 0.320400 -22.978900 12.830900 -21.038900 2.392200 20.926000 0.313200 10.889900 0.000000 0.000000 0.000000 -7.125000 0.000000 0.000000 -4.337400 18.360500 -2.758300 -0.000000 -0.000000 0.000000 1.824600 3.994900 4.880100 -17.409700 -27.394700 -4.274100 -5.317900 4.664100 56.768700 0.000000 0.000000 0.000000 7.125000 0.000000 -0.000000 82.610600 73.960600 -65.761500
-1.795219 16.199434 36.154247 177.310322 -1.903175 -151.842878 0.000000 0.000000 0.000000 -18.924333 -17.158051 -19.550003 0.215237 2.986824 8.242053 0.276185 1.533376 -10.607912 5.444550 -13.867527 -42.709488 0.000000 0.000000 0.000000 18.432870 13.317538 -19.242695 -0.049624 -1.437020 3.952165 -1.005993 -0.816957 -19.266342 -2.790054 10.337563 -30.086217 -6.050302 -2.223780 -31.404727 -0.076136 -1.602382 -1.845446 2.449355 -1.439376 14.440891 1.876282 -3.150532 -1.979703 0.651660 -4.338716 9.830074 -0.267145 -2.027931 3.486907 0.000000 0.000000 0.000000 5.358673 0.459662 -22.607833 12.824100 -21.028900 2.389800 20.678506 0.439503 10.958120 0.000000 0.000000 0.000000 -7.125000 0.000000 0.000000 -4.513575 18.308312 -2.876125 0.000000 0.000000 0.000000 1.525387 4.227728 5.099055 -17.424608 -27.414092 -4.281025 -4.431127 3.865482 56.912579 0.000000 0.000000 0.000000 7.125000 0.000000 0.000000 83.272782 73.660552 -66.075924
-1.794046 16.199648 36.152648 177.319788 -1.905378 -151.810780 0.000000 0.000000 0.000000 -18.882788 -17.168734 -19.561906 0.213867 2.977094 8.214994 0.278932 1.452970 -10.614313 5.329380 -13.745194 -42.226504 0.000000 0.000000 0.000000 18.514091 12.945472 -19.399039 -0.049033 -1.429313 3.930835 -0.996103 -0.598057 -19.088854 -2.723137 10.232266 -29.732665 -6.095342 -2.191665 -31.407225 -0.124328 -1.535385 -1.830374 2.448527 -1.411165 14.452235 2.029209 -2.999937 -1.939548 0.841638 -4.561779 9.670697 -0.246805 -2.296026 3.426361 0.000000 0.000000 0.000000 5.447701 0.310441 -22.552718 12.814038 -21.014040 2.386213 20.814577 0.162785 11.606807 0.000000 0.000000 0.000000 -7.125000 0.000000 0.000000 -4.434921 17.609174 -2.893933 0.000000 0.000000 0.000000 1.717469 4.352109 4.900172 -17.544987 -27.570556 -4.336597 -4.437012 3.582719 56.411290 0.000000 0.000000 0.000000 7.125000 0.000000 0.000000 81.560398 73.616990 -64.318648
-1.794574 16.201173 36.154259 177.348426 -1.884086 -151.813614 0.000000 0.000000 0.000000 -18.846961 -17.160704 -19.567268 0.214572 2.982101 8.228847 0.286074 1.340578 -10.682554 5.250746 -13.660803 -41.895156 0.000000 0.000000 0.000000 18.487113 13.046241 -19.343331 -0.047384 -1.404538 3.862533 -0.990204 -0.482213 -18.988882 -2.568202 9.960762 -28.849898 -6.065927 -2.190807 -31.388805 -0.137433 -1.536982 -1.799826 2.418383 -1.408419 14.479549 2.101129 -3.295102 -2.128606 0.835623 -4.412553 9.879528 -0.248080 -1.982966 3.530989 0.000000 0.000000 0.000000 5.480308 0.164643 -22.294243 12.677725 -20.813174 2.337502 20.741882 0.625054 11.390392 0.000000 0.000000 0.000000 -7.125000 0.000000 0.000000 -4.479988 17.844738 -2.900080 0.000000 0.000000 0.000000 1.748678 4.319544 4.776386 -17.547913 -27.574419 -4.337943 -4.827398 3.694534 56.371286 0.000000 0.000000 0.000000 7.125000 0.000000 0.000000 81.335437 73.750675 -64.251056
-1.799673 16.201002 36.152486 177.324496 -1.860566 -151.830424 0.000000 0.000000 0.000000 -18.929514 -17.170356 -19.499411 0.212693 2.969197 8.192929 0.282784 1.400169 -10.655544 5.252194 -13.662294 -41.901157 0.000000 0.000000 0.000000 18.537247 12.789309 -19.369143 -0.046048 -1.384673 3.807976 -0.970847 -0.526357 -18.820169 -2.684245 10.165447 -29.514131 -6.032713 -2.177605 -31.329541 -0.165615 -1.539121 -1.841976 2.370476 -1.406723 14.403065 2.049605 -3.354414 -2.112618 0.982040 -4.397421 10.034311 -0.189522 -1.924068 3.586639 0.000000 0.000000 0.000000 5.530797 0.296192 -22.777624 12.715076 -20.868366 2.350829 21.484024 0.502537 10.861890 0.000000 0.000000 0.000000 -7.125000 0.000000 0.000000 -3.943352 18.344220 -2.507627 0.000000 0.000000 0.000000 1.779521 4.285109 4.402473 -17.367417 -27.339474 -4.254694 -4.179157 3.503384 55.944887 0.000000 0.000000 0.000000 7.125000 0.000000 0.000000 80.051836 73.469460 -62.657616
-1.802203 16.197748 36.147274 177.264644 -1.828291 -151.777452 0.000000 0.000000 0.000000 -19.022528 -17.226384 -19.469492 0.210529 2.953823 8.150300 0.280858 1.438879 -10.641012 5.250423 -13.660201 -41.893331 0.000000 0.000000 0.000000 18.512787 12.526488 -19.460286 -0.046171 -1.386822 3.813754 -0.989688 -0.327042 -18.927323 -2.992134 10.681089 -31.212885 -6.082894 -2.229164 -31.415743 -0.161759 -1.591165 -1.856251 2.377321 -1.436182 14.428717 2.025770 -3.368825 -2.087516 1.095512 -4.420912 10.073595 -0.149062 -1.929199 3.599059 0.000000 0.000000 0.000000 5.506472 0.291362 -22.588211 12.634321 -20.749115 2.322156 21.443014 0.601742 10.693058 0.000000 0.000000 0.000000 -7.125000 0.000000 0.000000 -3.967430 18.527611 -2.507110 0.000000 0.000000 0.000000 1.716658 4.286331 4.390825 -17.220900 -27.148074 -4.187628 -4.986085 4.235945 56.586457 0.000000 0.000000 0.000000 7.125000 0.000000 0.000000 82.039406 73.828271 -65.040225
-1.803455 16.198272 36.145599 177.307147 -1.824295 -151.777392 0.000000 0.000000 0.000000 -18.998514 -17.176534 -19.474233 0.210800 2.956186 8.156688 0.283112 1.461877 -10.693287 5.291973 -13.705072 -42.068946 0.000000 0.000000 0.000000 18.564286 12.491347 -19.448935 -0.045685 -1.379862 3.794689 -1.004084 -0.193629 -19.015777 -2.983124 10.663701 -31.158022 -6.070189 -2.289070 -31.391736 -0.067418 -1.688482 -1.867511 2.434284 -1.480251 14.417430 1.908597 -3.333290 -2.174533 1.134766 -4.370427 10.216801 -0.117351 -1.902172 3.670220 0.000000 0.000000 0.000000 5.300052 0.208604 -22.082670 12.491691 -20.537818 2.271847 21.186157 0.776808 10.904011 0.000000 0.000000 0.000000 -7.125000 0.000000 0.000000 -4.154450 18.324213 -2.644621 0.000000 0.000000 0.000000 1.609014 4.341065 4.369054 -17.269802 -27.211954 -4.209976 -8.357859 7.339444 54.330027 0.000000 0.000000 0.000000 7.125000 0.000000 0.000000 73.093450 74.662002 -57.397958
-1.800731 16.195830 36.143128 177.389020 -1.700234 -151.730651 0.000000 0.000000 0.000000 -18.908603 -17.043879 -19.537485 0.207928 2.936093 8.100921 0.291194 1.441101 -10.822649 5.088545 -13.482541 -41.203358 0.000000 0.000000 0.000000 18.652952 12.587066 -19.519572 -0.046101 -1.385120 3.809222 -0.998670 -0.172333 -18.957189 -3.013629 10.717054 -31.331448 -6.062498 -2.288312 -31.442274 0.000787 -1.701972 -1.884810 2.497369 -1.489191 14.423129 1.806112 -3.278587 -2.311446 1.177909 -4.293475 10.453335 -0.087449 -1.857491 3.784074 0.000000 0.000000 0.000000 5.203354 0.177799 -21.765426 12.360831 -20.343550 2.226185 21.319463 0.615672 11.705230 0.000000 0.000000 0.000000 -7.125000 0.000000 0.000000 -4.084712 17.460525 -2.677615 0.000000 0.000000 0.000000 1.593280 4.378999 4.111161 -17.278841 -27.223946 -4.214124 -8.627865 8.014114 54.054341 0.000000 0.000000 0.000000 7.125000 0.000000 0.000000 72.052791 74.736753 -56.448491
